<svg xmlns="http://www.w3.org/2000/svg" viewBox="0 0 1200 630">
  <defs>
    <linearGradient id="mark" x1="0" x2="1" y1="0" y2="1">
      <stop stop-color="#9b87f5"/>
      <stop offset=".5" stop-color="#6e56cf"/>
      <stop offset="1" stop-color="#42d3a5"/>
    </linearGradient>
    <linearGradient id="title" x1="0" x2="1">
      <stop stop-color="#a690ff"/>
      <stop offset="1" stop-color="#46d6aa"/>
    </linearGradient>
    <pattern id="grid" width="56" height="56" patternUnits="userSpaceOnUse">
      <path d="M56 0H0V56" fill="none" stroke="#9b87f5" stroke-opacity=".08"/>
    </pattern>
    <radialGradient id="glow" cx="0" cy="0" r="1" gradientTransform="translate(1020 120) rotate(135) scale(520)">
      <stop stop-color="#42d3a5" stop-opacity=".13"/>
      <stop offset="1" stop-color="#42d3a5" stop-opacity="0"/>
    </radialGradient>
  </defs>
  <rect width="1200" height="630" fill="#0d0b11"/>
  <rect width="1200" height="630" fill="url(#grid)"/>
  <rect width="1200" height="630" fill="url(#glow)"/>
  <g transform="translate(76 72)">
    <rect width="58" height="58" rx="17" fill="url(#mark)"/>
    <path d="m15 43 6.6-23.4c.5-1.7 2.8-1.9 3.5-.2L29 29l9.4-3.6c1.7-.7 3 1.4 1.8 2.8L28 42.6c-1 1.3-3.1.4-3-1.2l.6-7.3-8.3 9.3c-1 1.1-2.8-.3-2.3-1.7Z" fill="#fff"/>
    <circle cx="41" cy="15.5" r="3" fill="#d9fff3"/>
    <text x="78" y="39" fill="#f5f1f8" font-family="Inter,Arial,sans-serif" font-size="27" font-weight="700">Magic Modal</text>
  </g>
  <text x="76" y="255" fill="#f5f1f8" font-family="Inter,Arial,sans-serif" font-size="78" font-weight="700" letter-spacing="-4">Modal flows,</text>
  <text x="76" y="344" fill="url(#title)" font-family="Inter,Arial,sans-serif" font-size="78" font-weight="700" letter-spacing="-4">without the ceremony.</text>
  <text x="80" y="418" fill="#aaa2b6" font-family="Inter,Arial,sans-serif" font-size="27">Imperative, awaitable, type-safe modals for React Native.</text>
  <g transform="translate(80 490)">
    <rect width="420" height="62" rx="14" fill="#17131d" stroke="#30283a"/>
    <text x="24" y="40" fill="#42d3a5" font-family="monospace" font-size="21">$</text>
    <text x="53" y="40" fill="#f5f1f8" font-family="monospace" font-size="21">pnpm add react-native-magic-modal</text>
  </g>
</svg>
